<?xml version="1.0" standalone="no"?>
<!DOCTYPE svg PUBLIC "-//W3C//DTD SVG 20010904//EN"
 "http://www.w3.org/TR/2001/REC-SVG-20010904/DTD/svg10.dtd">
<svg version="1.0" xmlns="http://www.w3.org/2000/svg"
 width="260.000000pt" height="260.000000pt" viewBox="0 0 260.000000 260.000000"
 preserveAspectRatio="xMidYMid meet">
<metadata>
Created by potrace 1.14, written by Peter Selinger 2001-2017
</metadata>
<g transform="translate(0.000000,260.000000) scale(0.100000,-0.100000)"
fill="#000000" stroke="none">
<path d="M990 2515 l0 -85 -165 0 -165 0 0 -80 0 -80 -80 0 -80 0 0 -85 0 -85
-85 0 -85 0 0 -155 0 -155 -80 0 -80 0 0 -575 0 -575 80 0 80 0 0 -75 0 -75
85 0 85 0 0 -90 0 -90 80 0 80 0 0 -75 0 -75 165 0 165 0 0 -80 0 -80 320 0
320 0 0 80 0 80 165 0 165 0 0 75 0 75 75 0 75 0 0 90 0 90 90 0 90 0 0 65 0
65 85 0 85 0 0 585 0 585 -85 0 -85 0 0 155 0 155 -90 0 -90 0 0 85 0 85 -75
0 -75 0 0 80 0 80 -165 0 -165 0 0 85 0 85 -320 0 -320 0 0 -85z m640 -165 l0
-80 165 0 165 0 0 -85 0 -85 75 0 75 0 0 -155 0 -155 90 0 90 0 0 -410 0 -410
-90 0 -90 0 0 -85 0 -85 -75 0 -75 0 0 -80 0 -80 -165 0 -165 0 0 -75 0 -75
-320 0 -320 0 0 75 0 75 -165 0 -165 0 0 -75 0 -75 75 0 75 0 0 -90 0 -90 -75
0 -75 0 0 90 0 90 -80 0 -80 0 0 75 0 75 -85 0 -85 0 0 80 0 80 85 0 85 0 0
85 0 85 -85 0 -85 0 0 410 0 410 85 0 85 0 0 155 0 155 80 0 80 0 0 85 0 85
165 0 165 0 0 80 0 80 320 0 320 0 0 -80z"/>
<path d="M990 2185 l0 -85 -165 0 -165 0 0 -155 0 -155 -80 0 -80 0 0 -245 0
-245 80 0 80 0 0 -85 0 -85 240 0 240 0 0 240 0 240 -75 0 -75 0 0 165 0 165
75 0 75 0 0 80 0 80 165 0 165 0 0 -80 0 -80 80 0 80 0 0 -165 0 -165 -80 0
-80 0 0 -240 0 -240 245 0 245 0 0 85 0 85 75 0 75 0 0 245 0 245 -75 0 -75 0
0 155 0 155 -165 0 -165 0 0 85 0 85 -320 0 -320 0 0 -85z"/>
<path d="M500 720 l0 -80 80 0 80 0 0 80 0 80 -80 0 -80 0 0 -80z"/>
</g>
</svg>
